<svg width="21" height="15" viewBox="0 0 21 15" fill="none" xmlns="http://www.w3.org/2000/svg">
<path d="M17.0804 1.22258C19.3061 4.37752 20.4052 7.93621 19.9943 12.0331C19.9926 12.0504 19.9832 12.0663 19.9685 12.0768C18.283 13.27 16.6501 13.9941 15.04 14.4743C15.0275 14.478 15.014 14.4778 15.0016 14.4738C14.9892 14.4697 14.9784 14.462 14.9708 14.4518C14.5988 13.9528 14.2608 13.4267 13.9647 12.8743C13.9477 12.8418 13.9633 12.8026 13.9982 12.7898C14.535 12.5948 15.0454 12.3611 15.5364 12.0844C15.575 12.0625 15.5775 12.0091 15.5418 11.9834C15.4376 11.9089 15.3344 11.8305 15.2356 11.7521C15.2171 11.7376 15.1922 11.7348 15.1713 11.7445C11.9839 13.1636 8.49236 13.1636 5.26732 11.7445C5.24638 11.7355 5.2215 11.7386 5.20352 11.7528C5.10499 11.8312 5.00153 11.9089 4.89831 11.9834C4.86259 12.0091 4.86555 12.0625 4.90447 12.0844C5.39542 12.3558 5.90583 12.5948 6.44186 12.7907C6.47659 12.8035 6.4931 12.8418 6.47585 12.8743C6.18616 13.4274 5.84819 13.9535 5.46932 14.4525C5.45282 14.4727 5.42572 14.4819 5.4001 14.4743C3.79768 13.9941 2.16471 13.27 0.479276 12.0768C0.465234 12.0663 0.455135 12.0497 0.453657 12.0324C0.110263 8.48864 0.810106 4.9005 3.36486 1.22186C3.37102 1.21213 3.38038 1.20453 3.39122 1.20001C4.64828 0.64379 5.995 0.234579 7.40257 0.000879114C7.42819 -0.00292088 7.45381 0.0084791 7.46711 0.0303291C7.64102 0.327204 7.83982 0.707915 7.97432 1.01904C9.458 0.80054 10.9648 0.80054 12.4796 1.01904C12.6141 0.714565 12.806 0.327204 12.9791 0.0303291C12.9853 0.0194895 12.9949 0.0108055 13.0065 0.00551671C13.0181 0.000227937 13.0311 -0.00139517 13.0437 0.000879114C14.452 0.235291 15.7987 0.644503 17.0548 1.20001C17.0659 1.20453 17.075 1.21213 17.0804 1.22258V1.22258ZM8.7286 7.96044C8.74412 6.91283 7.9519 6.04596 6.95744 6.04596C5.97111 6.04596 5.18653 6.90523 5.18653 7.96044C5.18653 9.01541 5.98663 9.87469 6.95744 9.87469C7.94402 9.87469 8.7286 9.01541 8.7286 7.96044V7.96044ZM15.2767 7.96044C15.2922 6.91283 14.5 6.04596 13.5058 6.04596C12.5192 6.04596 11.7346 6.90523 11.7346 7.96044C11.7346 9.01541 12.5348 9.87469 13.5058 9.87469C14.5 9.87469 15.2767 9.01541 15.2767 7.96044V7.96044Z" fill="#043873"/>
</svg>
