<svg width="48" height="53" viewBox="0 0 48 53" fill="none" xmlns="http://www.w3.org/2000/svg">
<path d="M34.4484 37.3588C34.4484 37.7308 34.3271 38.0874 34.1111 38.3504C33.8951 38.6134 33.6021 38.7611 33.2966 38.7611H5.65186C5.34637 38.7611 5.05339 38.6134 4.83737 38.3504C4.62136 38.0874 4.5 37.7308 4.5 37.3588V9.31271C4.5 8.94079 4.62136 8.58411 4.83737 8.32113C5.05339 8.05814 5.34637 7.9104 5.65186 7.9104C5.95736 7.9104 6.25034 8.05814 6.46635 8.32113C6.68237 8.58411 6.80373 8.94079 6.80373 9.31271V25.8547L14.108 18.0771C14.3067 17.8653 14.5593 17.7431 14.8232 17.731C15.0872 17.7188 15.3466 17.8175 15.5579 18.0105L24.0255 25.7425L32.5378 16.6748C32.6494 16.5403 32.7824 16.435 32.9287 16.3654C33.0749 16.2958 33.2314 16.2633 33.3883 16.27C33.5453 16.2766 33.6994 16.3223 33.8413 16.4042C33.9833 16.486 34.1099 16.6024 34.2136 16.746C34.3172 16.8897 34.3956 17.0576 34.444 17.2395C34.4924 17.4214 34.5097 17.6134 34.4949 17.8037C34.48 17.9941 34.4334 18.1787 34.3578 18.3463C34.2823 18.5139 34.1793 18.6609 34.0554 18.7783L24.8405 28.5944C24.6417 28.8062 24.3892 28.9285 24.1252 28.9406C23.8612 28.9527 23.6019 28.854 23.3906 28.661L14.9229 20.9326L6.80373 29.5813V35.9565H33.2966C33.6021 35.9565 33.8951 36.1043 34.1111 36.3673C34.3271 36.6302 34.4484 36.9869 34.4484 37.3588Z" fill="#EDE3C1"/>
</svg>
