<svg width="48" height="53" viewBox="0 0 48 53" fill="none" xmlns="http://www.w3.org/2000/svg">
<path d="M37.0463 26.7195L27.3751 22.7734L23.8126 12.0865C23.6016 11.4537 23.2199 10.9075 22.719 10.5217C22.2181 10.1359 21.622 9.92908 21.0113 9.92908C20.4006 9.92908 19.8045 10.1359 19.3036 10.5217C18.8027 10.9075 18.421 11.4537 18.2101 12.0865L14.6251 22.7734L4.9463 26.707C4.37317 26.94 3.87854 27.3614 3.52915 27.9145C3.17976 28.4676 2.99243 29.1257 2.99243 29.8001C2.99243 30.4744 3.17976 31.1325 3.52915 31.6856C3.87854 32.2387 4.37317 32.6602 4.9463 32.8931L14.6251 36.8516L18.1876 47.5385C18.3985 48.1713 18.7802 48.7175 19.2811 49.1033C19.782 49.4891 20.3781 49.6959 20.9888 49.6959C21.5995 49.6959 22.1956 49.4891 22.6965 49.1033C23.1974 48.7175 23.5791 48.1713 23.7901 47.5385L27.3751 36.8516L37.0538 32.918C37.6269 32.685 38.1216 32.2636 38.471 31.7105C38.8203 31.1574 39.0077 30.4993 39.0077 29.8249C39.0077 29.1506 38.8203 28.4925 38.471 27.9394C38.1216 27.3863 37.6269 26.9648 37.0538 26.7319L37.0463 26.7195ZM25.6876 33.9987C25.4839 34.0815 25.299 34.2122 25.1456 34.3816C24.9922 34.551 24.8738 34.7552 24.7988 34.98L21.0001 46.3439L17.2088 34.9883C17.1339 34.7611 17.0148 34.5548 16.86 34.3838C16.7052 34.2129 16.5183 34.0814 16.3126 33.9987L6.02818 29.8125L16.3126 25.6263C16.5183 25.5436 16.7052 25.4121 16.86 25.2412C17.0148 25.0702 17.1339 24.8639 17.2088 24.6367L21.0001 13.2811L24.7913 24.6367C24.8663 24.8615 24.9847 25.0657 25.1381 25.2351C25.2915 25.4045 25.4764 25.5352 25.6801 25.618L35.9719 29.8125L25.6876 33.9987ZM27.0001 8.28125C27.0001 7.84199 27.1581 7.42071 27.4394 7.1101C27.7207 6.7995 28.1022 6.625 28.5001 6.625H31.5001V3.3125C31.5001 2.87324 31.6581 2.45196 31.9394 2.14135C32.2207 1.83075 32.6022 1.65625 33.0001 1.65625C33.3979 1.65625 33.7794 1.83075 34.0607 2.14135C34.342 2.45196 34.5001 2.87324 34.5001 3.3125V6.625H37.5001C37.8979 6.625 38.2794 6.7995 38.5607 7.1101C38.842 7.42071 39.0001 7.84199 39.0001 8.28125C39.0001 8.72051 38.842 9.14179 38.5607 9.4524C38.2794 9.763 37.8979 9.9375 37.5001 9.9375H34.5001V13.25C34.5001 13.6893 34.342 14.1105 34.0607 14.4211C33.7794 14.7318 33.3979 14.9062 33.0001 14.9062C32.6022 14.9062 32.2207 14.7318 31.9394 14.4211C31.6581 14.1105 31.5001 13.6893 31.5001 13.25V9.9375H28.5001C28.1022 9.9375 27.7207 9.763 27.4394 9.4524C27.1581 9.14179 27.0001 8.72051 27.0001 8.28125ZM46.5001 18.2188C46.5001 18.658 46.342 19.0793 46.0607 19.3899C45.7794 19.7005 45.3979 19.875 45.0001 19.875H43.5001V21.5312C43.5001 21.9705 43.342 22.3918 43.0607 22.7024C42.7794 23.013 42.3979 23.1875 42.0001 23.1875C41.6022 23.1875 41.2207 23.013 40.9394 22.7024C40.6581 22.3918 40.5001 21.9705 40.5001 21.5312V19.875H39.0001C38.6022 19.875 38.2207 19.7005 37.9394 19.3899C37.6581 19.0793 37.5001 18.658 37.5001 18.2188C37.5001 17.7795 37.6581 17.3582 37.9394 17.0476C38.2207 16.737 38.6022 16.5625 39.0001 16.5625H40.5001V14.9062C40.5001 14.467 40.6581 14.0457 40.9394 13.7351C41.2207 13.4245 41.6022 13.25 42.0001 13.25C42.3979 13.25 42.7794 13.4245 43.0607 13.7351C43.342 14.0457 43.5001 14.467 43.5001 14.9062V16.5625H45.0001C45.3979 16.5625 45.7794 16.737 46.0607 17.0476C46.342 17.3582 46.5001 17.7795 46.5001 18.2188Z" fill="#EDE3C1"/>
</svg>
