<svg width="48" height="53" viewBox="0 0 48 53" fill="none" xmlns="http://www.w3.org/2000/svg">
<path d="M41.6006 17.2167C43.6821 22.0235 44.0772 27.5114 42.7098 32.621C41.3423 37.7306 38.3092 42.0998 34.1957 44.8854C30.0823 47.6709 25.1802 48.6753 20.4356 47.7047C15.6909 46.7341 11.44 43.8574 8.50333 39.6296C5.56665 35.4019 4.15235 30.1229 4.5334 24.8115C4.91445 19.5001 7.06383 14.5328 10.5667 10.8683C14.0696 7.20379 18.6777 5.10188 23.5015 4.96821C28.3254 4.83455 33.0232 6.67862 36.6881 10.1445L40.9387 5.44903C41.2202 5.13825 41.6019 4.96366 42 4.96366C42.398 4.96366 42.7798 5.13825 43.0612 5.44903C43.3427 5.75981 43.5008 6.18132 43.5008 6.62083C43.5008 7.06034 43.3427 7.48185 43.0612 7.79263L25.0612 27.6676C24.7798 27.9784 24.398 28.153 24 28.153C23.6019 28.153 23.2202 27.9784 22.9387 27.6676C22.6573 27.3568 22.4991 26.9353 22.4991 26.4958C22.4991 26.0563 22.6573 25.6348 22.9387 25.324L28.1362 19.5851C26.7276 18.5565 25.0459 18.0829 23.3632 18.241C21.6805 18.399 20.0953 19.1796 18.8644 20.4561C17.6334 21.7327 16.8287 23.4307 16.5804 25.2751C16.3322 27.1196 16.655 29.0025 17.4966 30.6192C18.3381 32.2359 19.6492 33.4916 21.2176 34.1831C22.7859 34.8747 24.5197 34.9615 26.1384 34.4296C27.757 33.8977 29.1656 32.7782 30.1363 31.2523C31.107 29.7264 31.5828 27.8834 31.4868 26.0217C31.4758 25.8042 31.5036 25.5864 31.5687 25.3808C31.6339 25.1752 31.7351 24.9857 31.8665 24.8233C31.998 24.6608 32.1571 24.5286 32.3349 24.434C32.5126 24.3395 32.7055 24.2845 32.9025 24.2723C33.3003 24.2476 33.6907 24.3984 33.9879 24.6915C34.135 24.8367 34.2548 25.0124 34.3404 25.2087C34.426 25.4049 34.4758 25.6179 34.4868 25.8354C34.6236 28.4704 33.942 31.0781 32.5546 33.2275C31.1673 35.3769 29.1573 36.9392 26.8568 37.6563C24.5564 38.3734 22.1032 38.2023 19.9027 37.1714C17.7022 36.1404 15.8862 34.3113 14.7548 31.9863C13.6233 29.6614 13.2442 26.9797 13.6801 24.3846C14.116 21.7894 15.3407 19.4362 17.152 17.7138C18.9632 15.9914 21.2525 15.003 23.6414 14.9118C26.0304 14.8207 28.376 15.6323 30.2906 17.2125L34.5562 12.5026C31.4302 9.63685 27.4555 8.1474 23.3956 8.3203C19.3356 8.4932 15.4766 10.3163 12.5598 13.4393C9.64302 16.5624 7.87405 20.7653 7.59268 25.2407C7.31131 29.7162 8.53738 34.1486 11.0354 37.6867C13.5334 41.2248 17.1272 43.6192 21.1266 44.4098C25.126 45.2005 29.249 44.3317 32.7036 41.9704C36.1582 39.609 38.7009 35.9216 39.8433 31.6164C40.9858 27.3112 40.6474 22.6917 38.8931 18.6452C38.7215 18.2488 38.6996 17.7933 38.8322 17.379C38.9648 16.9648 39.2409 16.6256 39.6 16.4362C39.959 16.2467 40.3715 16.2226 40.7467 16.3689C41.1219 16.5153 41.429 16.8203 41.6006 17.2167Z" fill="#EDE3C1"/>
</svg>
